<?xml version="1.0" encoding="UTF-8"?>
<svg id="Capa_1" data-name="Capa 1" xmlns="http://www.w3.org/2000/svg" viewBox="0 0 683.26 454.83">
  <defs>
    <style>
      .cls-1, .cls-2, .cls-3 {
        stroke: #000;
        stroke-miterlimit: 10;
      }

      .cls-2, .cls-3 {
        stroke-width: 2px;
      }

      .cls-3 {
        fill: none;
      }
    </style>
  </defs>
  <path class="cls-3" d="m42.19,20.33C6.56,28.19-2.64,103.23,2.19,158.33c1.38,15.79,20.14,49.1,32,94,14,53,51,84,73,99,8.23,5.61-1.26,13.79,2,22,10.4,26.22,50.54,37.52,80,38,32.8.54,39,1,68-4,17.35-2.99,26.37,1.91,44-2,13.93-3.09,23.45-5.55,36-11,24.59-10.68,43-6,55-9,76.69-19.17,136-18,226-78,50.84-33.89,59.68-44.38,58-53-2.61-13.39-10.41-16.77-15-18-25.68-6.89-55.24,4.86-79,3-51-4-103-38-101-53,.57-4.3,12.32-1.06,16-8,3.55-6.71-9.5-26.5-12.5-25.5-11.42,3.81-19.76,2.58-18.5.5C497.19,102.33,686.25,10.2,682.19,2.33c-3.45-6.68-30,11-145,74-3.12,1.71-70.41,47.38-85,52-16.38,5.19-32.47-.99-35-2-18.19-7.25-19.04-18.88-35-21-2.04-.27-13.59-1.8-21,5-6.58,6.04-5.09,14.27-7,19-8.11,20.13-89,1-183-19C85.09,92.01,74.01,13.31,42.19,20.33Z"/>
  <path class="cls-2" d="m675.69,260.83c-.94,5.63-16.89,19.39-49.65,37.03-2.29,1.23-3.89,2.05-6.05,3.08-10.48,4.97-26.34,10.52-72.25,23.12-69.69,19.13-69.62,16.36-95.49,26.19-28.25,10.74-33.7,16.08-62.07,24.39-24.58,7.19-47.07,10.96-57.29,12.64-22.31,3.67-33.47,5.51-43.93,5.42-13.31-.12-21.96-1.84-35.33,1.81-9.49,2.59-12.22,5.39-21.01,9.03-13.56,5.62-43.93,7.05-43.93,7.23,0,.2,37.04,2.86,95-2.93,39.42-3.93,69.41-9.87,90-14,10.56-2.12,46.45-9.48,93-23,51.99-15.1,44-9,103-35,8.76-3.86,30.09-11.89,72-30,10.21-4.41,26.87-11.64,33-28,3-8,2-23,1-17Z"/>
  <path class="cls-2" d="m19.69,207.83c5,11,13.64,49.77,35,88,19,34,63,65,53,55-5.1-5.1-98.44-165.98-88-143Z"/>
  <path class="cls-1" d="m255.19,350.33c4.03,5.04,25.41.19,33-14,4.19-7.83,4.59-19.3,0-22-5.68-3.34-17.85,7.41-24,15-1.09,1.34-12.9,16.12-9,21Z"/>
  <path class="cls-1" d="m127.19,291.33c4.74,1.72,14.28-8.97,18-20,4.56-13.5,1.24-29.99-4-31-4.88-.94-11.3,11.55-14,19-4.63,12.8-5.27,30.08,0,32Z"/>
  <path class="cls-1" d="m274.19,360.33c-.54-1.6,32-8,36-27,1.59-7.58-2.01-14.05,0-15,2.93-1.39,15.2,10.09,14,20-2.22,18.27-49.36,23.91-50,22Z"/>
  <path d="m412.21,315.81c33.75.24,70.73-15.88,79.51-51.1.63-4.58-.1-9.41-.87-14.03-1.57-8.59-3.87-17.13-6.54-25.47-1.31-3.75-2.35-7.68-4.23-11.16-.13-.21-3.64-6.04-3.91-6.47-5.55-9.77-10.87-19.83-13.52-30.83-.53-2.2-.87-4.46-1.1-6.69-.25-2.09-.14-4.32-1.73-5.85,0,0,.65-.76.65-.76.96.76,1.65,1.9,1.98,3.05.81,3.27,1.21,6.53,2.3,9.69,4.24,13.03,12.07,24.88,19.49,36.31,5.72,11.8,15.61,42.62,12.32,54.99-7.28,26.37-31.3,43.84-57.51,48.33-8.91,1.58-17.98,1.91-26.88,1l.05-1h0Z"/>
  <path d="m141.3,205.52c19.73-29.47,52.46-45.26,85.58-54.99,13.69-3.92,28.28-7.22,42.37-9.27,21.95-3.19,44.3-5.02,66.47-3.69,0,0-.06,1-.06,1-8.83-.22-17.68.08-26.5.7-20.92,1.44-41.78,4.47-62.23,9.1-2.02.5-7.55,1.86-9.64,2.38-2.11.59-7.51,2.12-9.55,2.69-24.02,7.47-48.01,17.3-67.42,33.62-6.8,5.65-12.62,12.25-18.23,19.09,0,0-.78-.62-.78-.62h0Z"/>
  <path d="m433.83,137.31c-79.7,26.65-138.26,69.69-196.76,128.85,0,0-.76-.65-.76-.65,23.63-32.37,54.41-59.14,87.92-80.93,16.74-10.91,34.49-20.51,52.75-28.63,18.31-8.05,37.23-14.72,56.56-19.59l.28.96h0Z"/>
  <path d="m442.07,158.15c-30.57,36.96-69.35,67.43-113.16,87.13,0,0-.43-.9-.43-.9,5.32-2.72,10.61-5.5,15.8-8.45,26.03-14.59,50.2-32.43,71.98-52.82,8.73-8.15,17.05-16.74,25.06-25.6l.76.65h0Z"/>
  <path class="cls-2" d="m682.69,1.83c-167,115-202,134-197,151,0,0-65,19,37-50"/>
  <path d="m114.88,286.42c-8.71-10.26-12.17-25.37-6.65-37.99,3.21-7.35,11.82-12.5,19.08-14.53,0,0,.77,1.85.77,1.85-4.29,2.52-7.98,5.83-10.57,9.67-2.3,3.99-4.8,7.71-5.99,12.21-2.54,9.34-.1,19.49,4.98,27.6,0,0-1.61,1.18-1.61,1.18h0Z"/>
</svg>